HIERARCHY
ROOT Hips
{
	OFFSET 0.000000 100.481300 0.000000
	CHANNELS 6 Xposition Yposition Zposition Xrotation Yrotation Zrotation 
	JOINT Spine
	{
		OFFSET -0.279200 12.230698 -2.892100
		CHANNELS 3 Xrotation Yrotation Zrotation
		JOINT Spine1
		{
			OFFSET -0.232667 10.192268 -1.242267
			CHANNELS 3 Xrotation Yrotation Zrotation
			JOINT Spine1_split
			{
				OFFSET -0.232667 10.192268 -1.242267
				CHANNELS 3 Xrotation Yrotation Zrotation
				JOINT Spine2
				{
					OFFSET -0.232667 10.192268 -1.242267
					CHANNELS 3 Xrotation Yrotation Zrotation
					JOINT Neck
					{
						OFFSET -0.418800 17.814194 8.416900
						CHANNELS 3 Xrotation Yrotation Zrotation
						JOINT Head
						{
							OFFSET 0.000000 7.031097 3.806800
							CHANNELS 3 Xrotation Yrotation Zrotation
							JOINT HeadTop_End
							{
								OFFSET 0.000000 24.646606 12.978600
								CHANNELS 3 Xrotation Yrotation Zrotation
								End Site
								{
									OFFSET 0.000000 0.000000 0.000000
								}
							}
						}
					}
					JOINT LeftShoulder
					{
						OFFSET 8.476499 7.247704 -3.868750
						CHANNELS 3 Xrotation Yrotation Zrotation
						JOINT LeftShoulder_split
						{
							OFFSET 8.476499 7.247704 -3.868750
							CHANNELS 3 Xrotation Yrotation Zrotation
							JOINT LeftArm
							{
								OFFSET 9.308998 -2.777710 0.208600
								CHANNELS 3 Xrotation Yrotation Zrotation
								JOINT LeftForeArm
								{
									OFFSET 29.972298 0.000000 0.000000
									CHANNELS 3 Xrotation Yrotation Zrotation
									JOINT LeftHand
									{
										OFFSET 26.026505 0.000000 0.000000
										CHANNELS 3 Xrotation Yrotation Zrotation
										JOINT LeftHandThumb1
										{
											OFFSET 12.240501 -7.147949 9.207150
											CHANNELS 3 Xrotation Yrotation Zrotation
											JOINT LeftHandThumb2
											{
												OFFSET 4.138618 -2.389435 2.389433
												CHANNELS 3 Xrotation Yrotation Zrotation
												JOINT LeftHandThumb3
												{
													OFFSET 2.726913 -1.574387 1.574386
													CHANNELS 3 Xrotation Yrotation Zrotation
													JOINT LeftHandThumb4
													{
														OFFSET 3.941010 -2.275345 2.275342
														CHANNELS 3 Xrotation Yrotation Zrotation
														End Site
														{
															OFFSET 0.000000 0.000000 0.000000
														}
													}
												}
											}
										}
										JOINT LeftHandIndex1
										{
											OFFSET 24.424698 -1.985611 5.953459
											CHANNELS 3 Xrotation Yrotation Zrotation
											JOINT LeftHandIndex2
											{
												OFFSET 6.426697 0.000000 0.000000
												CHANNELS 3 Xrotation Yrotation Zrotation
												JOINT LeftHandIndex3
												{
													OFFSET 5.337898 0.000000 0.000000
													CHANNELS 3 Xrotation Yrotation Zrotation
													JOINT LeftHandIndex4
													{
														OFFSET 4.409401 0.000000 0.000000
														CHANNELS 3 Xrotation Yrotation Zrotation
														End Site
														{
															OFFSET 0.000000 0.000000 0.000000
														}
													}
												}
											}
										}
										JOINT LeftHandMiddle1
										{
											OFFSET 23.810104 0.000000 0.000000
											CHANNELS 3 Xrotation Yrotation Zrotation
											JOINT LeftHandMiddle2
											{
												OFFSET 7.176498 0.000000 0.000000
												CHANNELS 3 Xrotation Yrotation Zrotation
												JOINT LeftHandMiddle3
												{
													OFFSET 6.774902 0.000000 0.000000
													CHANNELS 3 Xrotation Yrotation Zrotation
													JOINT LeftHandMiddle4
													{
														OFFSET 5.403328 0.000000 0.000000
														CHANNELS 3 Xrotation Yrotation Zrotation
														End Site
														{
															OFFSET 0.000000 0.000000 0.000000
														}
													}
												}
											}
										}
										JOINT LeftHandRing1
										{
											OFFSET 22.908401 -0.839279 -6.020567
											CHANNELS 3 Xrotation Yrotation Zrotation
											JOINT LeftHandRing2
											{
												OFFSET 6.337502 0.000000 0.000000
												CHANNELS 3 Xrotation Yrotation Zrotation
												JOINT LeftHandRing3
												{
													OFFSET 5.779297 0.000000 0.000000
													CHANNELS 3 Xrotation Yrotation Zrotation
													JOINT LeftHandRing4
													{
														OFFSET 4.965698 0.000000 0.000000
														CHANNELS 3 Xrotation Yrotation Zrotation
														End Site
														{
															OFFSET 0.000000 0.000000 0.000000
														}
													}
												}
											}
										}
										JOINT LeftHandPinky1
										{
											OFFSET 20.037003 -1.530319 -10.950146
											CHANNELS 3 Xrotation Yrotation Zrotation
											JOINT LeftHandPinky2
											{
												OFFSET 5.254700 0.000000 0.000000
												CHANNELS 3 Xrotation Yrotation Zrotation
												JOINT LeftHandPinky3
												{
													OFFSET 4.810204 0.000000 0.000000
													CHANNELS 3 Xrotation Yrotation Zrotation
													JOINT LeftHandPinky4
													{
														OFFSET 3.647202 0.000000 0.000000
														CHANNELS 3 Xrotation Yrotation Zrotation
														End Site
														{
															OFFSET 0.000000 0.000000 0.000000
														}
													}
												}
											}
										}
									}
								}
							}
						}
					}
					JOINT RightShoulder
					{
						OFFSET -7.570500 7.247704 -3.868750
						CHANNELS 3 Xrotation Yrotation Zrotation
						JOINT RightShoulder_split
						{
							OFFSET -7.570500 7.247704 -3.868750
							CHANNELS 3 Xrotation Yrotation Zrotation
							JOINT RightArm
							{
								OFFSET -9.308998 -2.777710 0.208500
								CHANNELS 3 Xrotation Yrotation Zrotation
								JOINT RightForeArm
								{
									OFFSET -29.972300 0.000000 0.000000
									CHANNELS 3 Xrotation Yrotation Zrotation
									JOINT RightHand
									{
										OFFSET -26.026505 0.000000 0.000000
										CHANNELS 3 Xrotation Yrotation Zrotation
										JOINT RightHandThumb1
										{
											OFFSET -12.240601 -7.148026 9.207092
											CHANNELS 3 Xrotation Yrotation Zrotation
											JOINT RightHandThumb2
											{
												OFFSET -4.138618 -2.389435 2.389433
												CHANNELS 3 Xrotation Yrotation Zrotation
												JOINT RightHandThumb3
												{
													OFFSET -2.726974 -1.574417 1.574421
													CHANNELS 3 Xrotation Yrotation Zrotation
													JOINT RightHandThumb4
													{
														OFFSET -3.941010 -2.275345 2.275343
														CHANNELS 3 Xrotation Yrotation Zrotation
														End Site
														{
															OFFSET 0.000000 0.000000 0.000000
														}
													}
												}
											}
										}
										JOINT RightHandIndex1
										{
											OFFSET -24.424698 -1.985657 5.953444
											CHANNELS 3 Xrotation Yrotation Zrotation
											JOINT RightHandIndex2
											{
												OFFSET -6.426697 0.000000 0.000000
												CHANNELS 3 Xrotation Yrotation Zrotation
												JOINT RightHandIndex3
												{
													OFFSET -5.337898 0.000000 0.000000
													CHANNELS 3 Xrotation Yrotation Zrotation
													JOINT RightHandIndex4
													{
														OFFSET -4.409401 0.000000 0.000000
														CHANNELS 3 Xrotation Yrotation Zrotation
														End Site
														{
															OFFSET 0.000000 0.000000 0.000000
														}
													}
												}
											}
										}
										JOINT RightHandMiddle1
										{
											OFFSET -23.810097 0.000000 0.000000
											CHANNELS 3 Xrotation Yrotation Zrotation
											JOINT RightHandMiddle2
											{
												OFFSET -7.176498 0.000000 0.000000
												CHANNELS 3 Xrotation Yrotation Zrotation
												JOINT RightHandMiddle3
												{
													OFFSET -6.774902 0.000000 0.000000
													CHANNELS 3 Xrotation Yrotation Zrotation
													JOINT RightHandMiddle4
													{
														OFFSET -5.403328 0.000000 0.000000
														CHANNELS 3 Xrotation Yrotation Zrotation
														End Site
														{
															OFFSET 0.000000 0.000000 0.000000
														}
													}
												}
											}
										}
										JOINT RightHandRing1
										{
											OFFSET -22.908302 -0.839325 -6.020576
											CHANNELS 3 Xrotation Yrotation Zrotation
											JOINT RightHandRing2
											{
												OFFSET -6.337502 0.000000 0.000000
												CHANNELS 3 Xrotation Yrotation Zrotation
												JOINT RightHandRing3
												{
													OFFSET -5.779297 0.000000 0.000000
													CHANNELS 3 Xrotation Yrotation Zrotation
													JOINT RightHandRing4
													{
														OFFSET -4.965698 0.000000 0.000000
														CHANNELS 3 Xrotation Yrotation Zrotation
														End Site
														{
															OFFSET 0.000000 0.000000 0.000000
														}
													}
												}
											}
										}
										JOINT RightHandPinky1
										{
											OFFSET -20.037003 -1.530334 -10.950259
											CHANNELS 3 Xrotation Yrotation Zrotation
											JOINT RightHandPinky2
											{
												OFFSET -5.254700 0.000000 0.000000
												CHANNELS 3 Xrotation Yrotation Zrotation
												JOINT RightHandPinky3
												{
													OFFSET -4.810204 0.000000 0.000000
													CHANNELS 3 Xrotation Yrotation Zrotation
													JOINT RightHandPinky4
													{
														OFFSET -3.647202 0.000000 0.000000
														CHANNELS 3 Xrotation Yrotation Zrotation
														End Site
														{
															OFFSET 0.000000 0.000000 0.000000
														}
													}
												}
											}
										}
									}
								}
							}
						}
					}
				}
			}
		}
	}
	JOINT LeftUpLeg
	{
		OFFSET 15.427100 -6.655098 0.678600
		CHANNELS 3 Xrotation Yrotation Zrotation
		JOINT LeftLeg
		{
			OFFSET 4.081073 -39.591068 13.024000
			CHANNELS 3 Xrotation Yrotation Zrotation
			JOINT LeftFoot
			{
				OFFSET -4.081074 -37.707932 -15.979700
				CHANNELS 3 Xrotation Yrotation Zrotation
				JOINT LeftToeBase
				{
					OFFSET 5.346399 -15.068900 20.645000
					CHANNELS 3 Xrotation Yrotation Zrotation
					JOINT LeftToe_End
					{
						OFFSET 2.754700 0.931300 11.300900
						CHANNELS 3 Xrotation Yrotation Zrotation
						End Site
						{
							OFFSET 0.000000 0.000000 0.000000
						}
					}
				}
			}
		}
	}
	JOINT RightUpLeg
	{
		OFFSET -15.569500 -6.655098 0.678600
		CHANNELS 3 Xrotation Yrotation Zrotation
		JOINT RightLeg
		{
			OFFSET -4.081825 -39.591045 13.023800
			CHANNELS 3 Xrotation Yrotation Zrotation
			JOINT RightFoot
			{
				OFFSET 4.081824 -37.707954 -15.979600
				CHANNELS 3 Xrotation Yrotation Zrotation
				JOINT RightToeBase
				{
					OFFSET -5.346400 -15.068900 20.645000
					CHANNELS 3 Xrotation Yrotation Zrotation
					JOINT RightToe_End
					{
						OFFSET -2.754700 0.931300 11.300900
						CHANNELS 3 Xrotation Yrotation Zrotation
						End Site
						{
							OFFSET 0.000000 0.000000 0.000000
						}
					}
				}
			}
		}
	}
}
MOTION
Frames: 4
Frame Time: 0.016667
1.645906 25.609970 -32.151367 35.544417 2.623614 2.026107 20.878107 5.416863 -5.700767 16.625270 2.079676 -1.485669 0.000000 0.000000 0.000000 17.328745 1.234475 -2.301334 5.476095 -1.525564 3.253846 0.036677 -8.619862 6.396879 -0.000000 -0.000000 0.000000 1.353983 -36.456647 -6.881256 0.000000 0.000000 0.000000 -62.004491 -39.879897 -54.567727 -0.000033 -60.951864 -0.000057 -18.879876 -14.506198 -10.306271 46.706828 -54.290944 -12.631198 3.448273 53.010867 10.295010 55.540974 55.566608 -29.377859 0.000001 -0.000002 0.000001 6.697751 5.391160 -58.720434 3.793605 5.478567 -69.379859 1.468822 3.880759 -41.449696 -0.000000 -0.000000 -0.000001 -2.544100 3.154099 -51.895210 5.923351 5.850629 -90.709092 2.207248 4.581033 -51.433251 -0.000002 -0.000000 -0.000001 0.963609 5.963291 -53.197878 4.594742 5.715045 -77.580185 2.697972 4.931293 -57.346569 0.000001 0.000000 -0.000001 -0.907388 26.005001 -39.715487 3.064067 5.146694 -61.512609 0.533966 2.445509 -24.630171 0.000000 -0.000001 -0.000001 0.501215 13.720774 0.229926 0.000000 0.000000 0.000000 -44.186877 22.328117 43.767900 -0.000029 66.681983 0.000032 -26.725439 16.671153 -4.017982 69.260236 51.829921 -9.321593 -17.238178 -69.068355 -27.413432 100.202010 -53.850591 76.704732 -0.000001 0.000001 -0.000001 4.914260 -3.615841 60.176494 3.071676 -4.379521 70.075945 1.182035 -3.102355 41.707375 -0.000001 -0.000003 -0.000003 0.967465 -5.391926 56.500401 4.691403 -4.657034 90.421575 2.232039 -3.977122 58.590708 -0.000000 -0.000004 0.000001 3.739678 -7.060343 61.039283 4.198918 -4.634619 84.346928 2.796401 -4.270027 66.426759 -0.000000 0.000001 0.000001 1.020338 -22.211470 53.091866 2.717047 -4.234631 65.356755 0.312891 -1.679842 21.100637 -0.000000 0.000001 0.000002 -51.603715 -42.197691 41.621557 117.004364 -31.018017 -20.930176 36.686292 2.524816 -17.527406 11.552485 7.222432 36.086516 0.000000 -0.000000 0.000001 -33.871229 36.608062 -55.334583 114.188107 36.655911 23.567076 19.837427 8.842167 9.998382 32.252283 14.474344 4.832043 0.000001 -0.000001 0.000001 
1.577772 25.295334 -32.733772 33.228133 1.823207 1.979877 21.198863 5.095541 -6.348034 17.022947 1.980981 -1.805810 0.000000 0.000000 0.000000 18.108146 1.141504 -2.575395 5.617644 -1.520867 3.438336 1.609230 -7.888316 6.936113 0.000000 -0.000000 0.000000 0.477520 -34.381793 -9.362761 0.000000 0.000000 0.000000 -61.426166 -41.959403 -53.402227 0.000026 -61.272896 0.000038 -22.963490 -13.256060 -12.254868 46.706336 -54.290462 -12.630071 3.450892 53.011270 10.293392 55.540114 55.566205 -29.375643 0.000002 0.000002 -0.000001 6.698406 5.389815 -58.719942 3.793563 5.478560 -69.379381 1.468915 3.880843 -41.451134 -0.000000 0.000001 0.000001 -2.545112 3.153137 -51.894200 5.923215 5.850607 -90.707876 2.207190 4.580988 -51.432749 -0.000000 0.000000 -0.000000 0.964047 5.963678 -53.199278 4.594582 5.715034 -77.578586 2.697884 4.931213 -57.345421 -0.000001 0.000002 0.000002 -0.905737 26.004132 -39.717243 3.064174 5.146755 -61.513858 0.533960 2.445507 -24.630154 -0.000001 0.000002 0.000000 0.583484 12.269619 0.145178 0.000000 0.000000 0.000000 -46.315229 24.522720 46.813461 -0.000012 65.396056 0.000013 -21.012640 17.831693 -3.834761 69.234110 51.862142 -9.337179 -17.171425 -69.029136 -27.340660 99.875957 -53.626168 76.456448 0.000002 0.000000 0.000000 4.909855 -3.611814 60.155047 3.069791 -4.378853 70.051404 1.180990 -3.101157 41.687742 -0.000001 -0.000000 0.000001 0.966405 -5.390592 56.478916 4.689379 -4.657063 90.396980 2.230701 -3.976286 58.571044 0.000003 -0.000002 0.000002 3.737754 -7.059900 61.017693 4.196934 -4.634428 84.322333 2.794934 -4.269400 66.407067 -0.000001 0.000001 -0.000000 1.013322 -22.210928 53.073322 2.715646 -4.233972 65.337617 0.312898 -1.679843 21.100746 0.000002 0.000001 0.000000 -46.684657 -43.065115 45.341886 116.368884 -33.294047 -22.257350 36.482786 2.648613 -17.368898 11.544207 7.226249 36.098742 0.000002 0.000001 -0.000001 -33.966305 38.008521 -54.730658 114.961264 37.094027 23.117103 21.331885 8.619496 10.049136 32.290279 14.638552 4.888664 -0.000000 0.000001 -0.000001 
1.514031 25.112686 -33.124607 31.515975 1.268865 1.934559 21.403299 4.699996 -6.694255 17.202561 1.870332 -1.986119 0.000000 0.000000 0.000000 18.500460 1.040077 -2.690536 5.684557 -1.489047 3.465680 2.673363 -7.397687 7.196646 0.000000 0.000000 0.000000 -0.501357 -31.291074 -12.871381 0.000000 0.000000 0.000000 -60.476708 -44.977369 -51.911739 0.000019 -61.886493 0.000020 -28.497595 -11.740422 -12.578097 46.706036 -54.289936 -12.628710 3.453636 53.011752 10.291761 55.538116 55.565105 -29.372464 -0.000000 -0.000000 -0.000002 6.699122 5.388232 -58.718740 3.793478 5.478508 -69.378261 1.469007 3.880974 -41.452616 -0.000000 0.000000 -0.000002 -2.546225 3.152098 -51.892987 5.923085 5.850633 -90.706565 2.207110 4.580902 -51.431502 0.000001 -0.000000 0.000001 0.964509 5.964080 -53.200712 4.594395 5.714985 -77.576899 2.697760 4.931134 -57.344083 -0.000001 -0.000001 -0.000001 -0.903907 26.003141 -39.719172 3.064305 5.146835 -61.515361 0.533953 2.445505 -24.630151 -0.000000 -0.000003 -0.000002 0.552208 11.477479 0.087595 0.000000 0.000000 0.000000 -48.643207 26.757869 49.917167 -0.000001 63.773558 0.000018 -14.598411 19.870921 -3.658892 69.205594 51.896440 -9.358308 -17.081169 -68.975977 -27.242037 99.509081 -53.376866 76.180057 -0.000003 0.000002 0.000000 4.904431 -3.606879 60.131093 3.067715 -4.378089 70.024015 1.179796 -3.099838 41.665851 0.000002 -0.000001 -0.000003 0.965197 -5.389097 56.454952 4.687179 -4.657080 90.369570 2.229168 -3.975369 58.549065 -0.000001 0.000001 0.000001 3.735619 -7.059429 60.993596 4.194727 -4.634202 84.294909 2.793282 -4.268680 66.385081 0.000002 0.000001 -0.000002 1.005541 -22.210319 53.052630 2.714075 -4.233260 65.316266 0.312890 -1.679840 21.100830 0.000001 -0.000003 0.000001 -43.223858 -43.413939 47.749173 115.956122 -34.630377 -23.021561 36.315341 2.668474 -17.253316 11.539963 7.229546 36.105480 0.000001 0.000003 -0.000000 -34.895430 38.676216 -53.079374 115.877492 36.966958 22.214531 22.246375 8.114039 10.412569 32.360600 14.921446 4.983167 -0.000003 0.000003 0.000001 
1.446563 25.001678 -33.410110 30.150613 0.838617 1.902530 21.520488 4.307351 -6.919378 17.308533 1.764369 -2.107503 0.000000 0.000000 0.000000 18.739553 0.943237 -2.743024 5.724971 -1.448772 3.430578 3.539761 -7.023168 7.344354 -0.000000 0.000000 -0.000000 -1.190613 -27.773395 -16.681108 0.000000 0.000000 0.000000 -58.867440 -47.971608 -49.903319 -0.000025 -63.757644 -0.000029 -34.031274 -10.583141 -11.107799 46.705684 -54.289308 -12.627171 3.456480 53.012295 10.290154 55.535308 55.563579 -29.368724 0.000001 -0.000000 -0.000001 6.699901 5.386525 -58.717415 3.793362 5.478470 -69.376970 1.469125 3.881090 -41.454173 -0.000000 0.000000 0.000001 -2.547348 3.151029 -51.891799 5.922929 5.850633 -90.705028 2.206985 4.580834 -51.430116 -0.000002 -0.000001 -0.000001 0.965016 5.964520 -53.202218 4.594242 5.714951 -77.575171 2.697649 4.931065 -57.342764 -0.000000 -0.000001 0.000001 -0.902025 26.002088 -39.721150 3.064458 5.146908 -61.517041 0.533945 2.445500 -24.630128 0.000000 -0.000002 -0.000001 0.425787 11.211947 0.063302 0.000000 0.000000 0.000000 -50.733593 28.440170 52.955584 -0.000031 62.997567 0.000020 -8.850955 21.981439 -3.713541 69.175992 51.931264 -9.384724 -16.971903 -68.909321 -27.122541 99.116031 -53.111705 75.887213 -0.000003 -0.000003 0.000003 4.898562 -3.601247 60.105501 3.065490 -4.377279 69.994809 1.178525 -3.098394 41.642448 -0.000002 -0.000001 -0.000000 0.963892 -5.387468 56.429350 4.684792 -4.657098 90.340324 2.227548 -3.974361 58.525637 -0.000002 -0.000001 0.000000 3.733387 -7.058928 60.967908 4.192347 -4.633955 84.265676 2.791525 -4.267921 66.361633 0.000001 0.000001 0.000000 0.997347 -22.209617 53.030572 2.712372 -4.232485 65.293453 0.312905 -1.679866 21.100975 -0.000001 -0.000000 0.000002 -39.787324 -43.841355 50.387446 115.276818 -35.884444 -24.069628 36.229810 2.502436 -16.951922 11.537248 7.231137 36.105910 0.000000 -0.000000 0.000000 -36.517538 38.735143 -50.556930 117.016467 36.366762 20.886843 22.773920 7.377216 10.950047 32.434649 15.198564 5.072319 -0.000003 -0.000001 -0.000001 
